<?xml version="1.0" standalone="no"?>
<!DOCTYPE svg PUBLIC "-//W3C//DTD SVG 20010904//EN"
 "http://www.w3.org/TR/2001/REC-SVG-20010904/DTD/svg10.dtd">
<svg version="1.0" xmlns="http://www.w3.org/2000/svg"
 width="794.000000pt" height="727.000000pt" viewBox="0 0 794.000000 727.000000"
 preserveAspectRatio="xMidYMid meet">

<g transform="translate(0.000000,727.000000) scale(0.100000,-0.100000)" stroke="none">
<path d="M3785 7259 c-255 -18 -533 -66 -694 -119 -118 -39 -226 -89 -215 -99
5 -5 119 -34 255 -65 282 -65 340 -69 415 -31 92 47 238 78 440 96 158 13 912
6 1024 -10 82 -11 424 -41 479 -41 l34 0 -28 22 c-42 33 -195 95 -314 128
-362 100 -950 150 -1396 119z"/>
<path d="M1835 7060 c3 -5 17 -10 30 -10 46 0 35 -19 -12 -22 -48 -3 -47 -3
72 -42 196 -63 251 -96 450 -272 135 -120 226 -185 326 -236 77 -40 90 -43
161 -43 71 0 79 2 107 29 17 16 39 54 50 87 l19 57 -71 12 c-193 32 -440 120
-629 226 -109 61 -208 124 -195 124 17 0 231 -92 412 -178 294 -138 290 -137
374 -137 41 0 76 5 77 10 2 6 -37 40 -87 78 -187 139 -492 253 -823 307 -131
22 -271 27 -261 10z"/>
<path d="M6023 7048 c-12 -13 -92 -135 -178 -272 -192 -306 -272 -415 -389
-532 -190 -189 -252 -221 -931 -487 -608 -239 -819 -393 -976 -712 -55 -113
-54 -118 26 -130 59 -9 95 9 225 114 118 95 215 151 259 151 54 -1 784 -109
793 -118 6 -6 6 -12 1 -15 -13 -8 -272 10 -483 34 -120 14 -213 19 -241 15
-56 -8 -125 -52 -159 -102 -46 -66 -90 -112 -120 -124 -36 -15 -157 -9 -330
15 -93 13 -131 14 -197 5 -109 -14 -153 -31 -393 -148 -326 -159 -497 -212
-689 -212 -103 0 -135 -11 -151 -51 -17 -41 -6 -67 100 -225 102 -153 132
-207 170 -309 l26 -70 41 -1 c75 -2 92 -13 206 -128 118 -119 191 -177 272
-218 63 -32 150 -61 169 -56 10 2 -24 47 -95 128 -121 137 -157 190 -170 251
-9 40 3 119 19 119 4 0 18 -21 32 -47 22 -41 89 -103 112 -103 4 0 8 12 8 26
0 34 28 141 43 165 15 25 47 24 92 -2 20 -12 37 -20 38 -18 2 2 8 31 15 64 43
217 262 407 561 487 119 32 498 39 465 8 -14 -12 -155 -29 -309 -35 -215 -10
-294 -37 -388 -133 l-39 -39 64 -7 c187 -20 292 -25 475 -26 l202 0 -18 -32
c-35 -61 -35 -74 1 -112 38 -41 105 -63 158 -52 25 4 67 35 142 101 62 55 110
90 114 84 6 -10 -46 -90 -173 -267 -29 -41 -60 -97 -68 -125 -18 -60 -49 -293
-65 -482 -30 -354 -66 -467 -172 -529 -36 -21 -70 -28 -183 -41 -76 -8 -140
-17 -142 -19 -2 -2 3 -21 12 -41 8 -21 13 -40 11 -42 -3 -3 -57 7 -121 22 -64
15 -118 25 -121 23 -2 -3 13 -37 33 -76 21 -39 35 -74 31 -78 -4 -4 -64 9
-133 28 -69 20 -125 32 -125 28 0 -14 57 -85 94 -117 20 -18 55 -42 77 -54
l41 -21 -33 -28 c-19 -15 -32 -30 -29 -32 126 -98 229 -131 345 -111 131 22
187 66 281 219 67 110 187 239 279 301 154 103 274 144 648 219 103 20 195 42
203 48 13 10 12 28 -6 146 -24 160 -51 256 -91 327 -36 62 -128 149 -195 183
-117 59 -197 140 -229 231 -21 57 -19 164 3 213 l18 40 26 -35 c14 -18 73
-101 131 -184 112 -158 166 -219 258 -292 71 -55 113 -108 146 -180 24 -51 27
-75 34 -223 6 -144 22 -244 45 -282 3 -4 33 11 67 32 44 28 63 36 65 26 2 -8
-18 -67 -45 -132 l-47 -119 2 -123 c3 -211 -40 -358 -158 -534 -38 -57 -65
-104 -60 -106 23 -8 84 41 225 181 84 84 186 195 227 247 286 361 431 713 454
1098 12 196 -30 338 -132 451 -26 29 -154 133 -283 230 -130 97 -243 181 -251
188 -30 23 -2 22 60 -3 428 -174 667 -433 720 -781 45 -293 -109 -693 -414
-1074 -103 -129 -304 -344 -458 -490 -76 -72 -137 -133 -135 -135 2 -2 39 5
83 16 164 42 320 141 445 282 38 43 77 74 120 97 163 85 268 198 361 385 18
36 35 66 39 66 16 0 19 -117 5 -173 -40 -148 -167 -279 -468 -482 -114 -76
-210 -145 -213 -153 -5 -15 2 -31 49 -114 64 -111 51 -209 -49 -359 -158 -237
-360 -384 -690 -504 -167 -60 -168 -61 -116 -70 97 -16 262 23 402 97 137 71
251 160 427 332 83 82 152 145 152 140 0 -5 -13 -33 -28 -62 -75 -145 -249
-297 -545 -477 -144 -87 -109 -80 -419 -83 -212 -3 -194 -27 40 -56 414 -53
793 14 1027 182 148 105 236 204 398 447 218 326 273 387 412 455 101 49 139
56 185 33 87 -45 94 -169 24 -416 -60 -215 -98 -336 -136 -430 -17 -43 -28
-80 -25 -83 19 -19 202 129 332 269 153 164 318 393 400 555 50 100 82 207 92
304 l6 68 36 -6 c73 -11 75 -6 109 346 l17 175 37 17 c26 12 38 25 42 45 3 15
6 143 8 283 4 317 12 293 -167 453 -22 19 -37 38 -33 42 3 3 39 -3 80 -15 40
-12 81 -24 90 -26 16 -5 16 -2 4 38 -56 177 -199 479 -274 578 -29 38 -109
114 -193 185 -126 106 -144 125 -147 154 -5 46 20 71 72 71 35 0 194 -33 274
-56 23 -7 23 -6 -9 57 -117 233 -403 424 -738 494 -134 28 -305 36 -596 29
-200 -4 -277 -3 -270 4 16 17 194 41 350 48 150 7 358 -6 515 -32 296 -50 533
-174 737 -387 122 -127 210 -251 358 -504 71 -121 80 -114 41 32 -76 282 -205
552 -369 770 -119 158 -318 345 -532 502 -38 28 -198 135 -355 238 -301 198
-350 236 -350 271 0 12 17 48 39 80 21 33 42 73 46 91 21 100 -198 625 -322
771 l-28 34 -22 -24z m-57 -409 c11 -122 -28 -387 -78 -539 -28 -87 -75 -185
-99 -206 -24 -22 -24 -21 10 121 42 169 53 240 49 320 l-3 70 -150 -139 c-134
-125 -279 -236 -308 -236 -6 0 1 12 14 28 338 369 395 439 526 651 22 34 32
15 39 -70z m-1836 -1329 c23 -12 23 -13 5 -20 -11 -4 -67 -15 -125 -24 -58
-10 -115 -22 -127 -27 -13 -4 -56 -36 -98 -70 -41 -34 -78 -60 -81 -57 -10 11
35 83 78 124 42 41 87 69 138 85 37 12 181 5 210 -11z"/>
<path d="M1125 6643 c-263 -15 -419 -28 -582 -48 -202 -26 -483 -82 -483 -98
0 -5 12 -6 27 -3 16 3 143 20 283 37 565 68 888 49 1335 -77 192 -54 335 -78
426 -71 64 5 70 4 133 -33 88 -52 172 -118 224 -180 l43 -50 77 0 c42 0 163 5
268 11 218 14 270 8 369 -40 77 -38 130 -84 207 -179 84 -105 82 -104 74 -53
-14 90 -65 192 -130 257 -95 95 -142 109 -491 144 -320 33 -403 61 -520 175
-36 36 -86 76 -110 90 -150 89 -419 126 -875 123 -124 -1 -247 -3 -275 -5z"/>
<path d="M595 6514 c-406 -42 -593 -73 -580 -94 8 -14 346 -118 495 -154 172
-40 248 -50 396 -51 l152 0 81 41 c45 23 81 38 81 34 0 -5 -18 -31 -40 -59
-46 -58 -51 -93 -17 -115 35 -23 153 -30 277 -16 61 6 114 9 117 7 3 -3 -18
-34 -45 -68 -56 -68 -79 -135 -67 -191 7 -30 41 -108 48 -108 2 0 52 72 112
160 100 146 125 176 125 151 0 -4 -34 -82 -75 -172 -41 -90 -75 -165 -75 -166
0 -8 58 -1 123 13 104 23 205 73 272 134 51 46 140 98 151 88 2 -2 -51 -69
-118 -149 -148 -175 -227 -293 -267 -399 -17 -43 -31 -82 -31 -85 0 -3 26 22
57 57 234 260 383 361 596 404 86 18 183 16 567 -7 330 -20 435 -37 553 -93
87 -42 87 -33 0 114 -83 138 -157 216 -247 260 -84 42 -163 48 -373 30 -232
-19 -293 -17 -351 15 -27 15 -99 71 -161 125 -139 122 -165 136 -251 131 -210
-11 -248 -8 -383 37 -295 98 -460 124 -812 127 -148 1 -288 1 -310 -1z"/>
<path d="M1121 5905 c-131 -142 -326 -538 -435 -884 -31 -97 -86 -330 -86
-361 0 -32 24 5 80 123 164 342 272 552 313 609 25 35 93 119 152 188 171 200
196 274 119 345 -19 17 -38 25 -64 25 -32 0 -44 -7 -79 -45z"/>
<path d="M2530 5734 c-154 -26 -234 -57 -349 -131 -85 -55 -335 -247 -472
-363 -102 -85 -172 -134 -327 -229 -273 -166 -481 -342 -649 -551 -190 -236
-323 -507 -381 -775 -23 -106 -33 -185 -22 -185 4 0 16 21 28 48 124 292 216
501 247 562 165 328 501 636 803 735 71 23 177 23 203 -1 26 -23 24 -41 -12
-121 -57 -127 -331 -1044 -316 -1059 2 -2 45 105 96 239 233 603 278 710 356
843 146 248 314 404 574 534 115 57 182 96 406 238 83 53 174 111 204 130 64
40 62 43 -54 67 -78 16 -285 28 -335 19z"/>
<path d="M681 3105 c0 -130 180 -753 318 -1098 28 -70 79 -182 112 -250 55
-109 103 -195 326 -582 34 -60 63 -113 63 -117 0 -15 -18 -8 -56 23 l-39 31
-195 -6 c-426 -15 -746 -35 -733 -46 9 -9 360 -86 708 -156 388 -78 550 -130
814 -263 466 -235 808 -328 1471 -401 285 -32 958 -61 946 -42 -3 5 -20 12
-38 15 -105 19 -763 165 -928 206 -426 108 -756 246 -895 376 l-50 46 21 17
c12 9 167 127 345 262 385 292 631 487 754 599 102 93 271 275 299 322 18 31
18 31 -3 20 -11 -6 -91 -58 -178 -115 -190 -124 -280 -176 -445 -255 -414
-198 -1004 -373 -1263 -375 -179 -1 -265 43 -445 223 -232 233 -454 559 -633
931 -38 80 -112 251 -164 380 -93 232 -112 275 -112 255z"/>
<path d="M2082 2709 c-10 -26 -226 -685 -277 -849 -36 -113 -46 -279 -20 -333
21 -45 73 -72 123 -62 43 8 203 87 221 109 29 35 -21 293 -66 347 l-24 29 25
72 c13 40 30 102 36 138 14 74 15 446 2 525 -8 48 -9 49 -20 24z"/>
<path d="M6721 1922 c-31 -17 -215 -248 -392 -493 -174 -240 -322 -390 -504
-510 -79 -52 -117 -73 -295 -157 -132 -62 -175 -95 -397 -300 -117 -108 -278
-280 -269 -289 10 -10 321 66 461 112 256 85 505 214 710 368 153 115 220 180
267 260 22 40 72 125 110 190 38 65 91 162 117 215 88 176 261 560 263 582 4
32 -32 43 -71 22z"/>
<path d="M673 1566 c37 -53 199 -216 262 -263 94 -72 193 -115 277 -121 l71
-5 -7 42 c-16 100 -80 185 -183 241 -82 44 -152 68 -305 104 l-137 33 22 -31z"/>
<path d="M3344 1070 c-133 -9 -318 -40 -434 -71 -90 -25 -242 -96 -290 -137
l-35 -30 25 -21 c14 -11 54 -36 90 -53 59 -30 72 -33 160 -33 l95 0 325 114
c179 62 384 133 455 158 72 24 134 48 138 52 20 20 -340 34 -529 21z"/>
<path d="M1857 583 c24 -68 161 -287 245 -395 56 -72 168 -191 174 -185 9 8
-114 449 -131 467 -33 36 -236 130 -281 130 -9 0 -11 -6 -7 -17z"/>
</g>
</svg>
